<?xml version="1.0"?>
<svg xmlns="http://www.w3.org/2000/svg" height="512px" viewBox="-8 0 464 464" width="512px"><path d="m304 432h-160v16h-32v16h224v-16h-32zm0 0" fill="#FFFFFF"/><path d="m175.0625 368-6 48h109.875l-6-48zm0 0" fill="#FFFFFF"/><path d="m72 256h304c4.417969 0 8-3.582031 8-8v-200h-320v200c0 4.417969 3.582031 8 8 8zm152-48h-32v-16h32zm-64-32v-16h48v16zm16 16v16h-32v-16zm90.34375-106.34375 11.3125-11.3125 24 24c3.121094 3.125 3.121094 8.1875 0 11.3125l-24 24-11.3125-11.3125 18.34375-18.34375zm-33.777344-24.632812 14.867188 5.953124-32 80-14.867188-5.953124zm-86.222656 37.320312 24-24 11.3125 11.3125-18.34375 18.34375 18.34375 18.34375-11.3125 11.3125-24-24c-3.121094-3.125-3.121094-8.1875 0-11.3125zm-18.34375 61.65625h16v16h-16zm-16 64h96v16h-96zm0 0" fill="#FFFFFF"/><path d="m0 328c0 13.253906 10.746094 24 24 24h400c13.253906 0 24-10.746094 24-24v-24h-448zm408-8h16v16h-16zm0 0" fill="#FFFFFF"/><path d="m424 64h-24v184c0 13.253906-10.746094 24-24 24h-304c-13.253906 0-24-10.746094-24-24v-184h-24c-13.253906 0-24 10.746094-24 24v200h448v-200c0-13.253906-10.746094-24-24-24zm0 0" fill="#FFFFFF"/><path d="m384 8c0-4.417969-3.582031-8-8-8h-304c-4.417969 0-8 3.582031-8 8v24h320zm-288 16h-16v-16h16zm32 0h-16v-16h16zm32 0h-16v-16h16zm0 0" fill="#FFFFFF"/></svg>
