<?xml version="1.0"?>
<svg xmlns="http://www.w3.org/2000/svg" height="512px" viewBox="0 -4 456 456" width="512px"><path d="m400 384h-8v-16h8c22.082031-.027344 39.972656-17.917969 40-40v-24c-.027344-22.082031-17.917969-39.972656-40-40h-64c-22.089844 0-40-17.910156-40-40s17.910156-40 40-40h80c13.253906 0 24-10.746094 24-24s-10.746094-24-24-24h-144v-16h144c22.089844 0 40 17.910156 40 40s-17.910156 40-40 40h-80c-13.253906 0-24 10.746094-24 24s10.746094 24 24 24h64c30.910156.039062 55.960938 25.089844 56 56v24c-.039062 30.910156-25.089844 55.960938-56 56zm0 0" fill="#FFFFFF"/><path d="m8 448h336c4.417969 0 8-3.582031 8-8v-88c0-4.417969-3.582031-8-8-8h-336c-4.417969 0-8 3.582031-8 8v88c0 4.417969 3.582031 8 8 8zm280-8h-224v-16h224zm16-16h16v-24h16v32c0 4.417969-3.582031 8-8 8h-24zm-24-64h16v16h-16zm0 32h16v16h-16zm-32-32h16v16h-16zm0 32h16v16h-16zm-32-32h16v16h-16zm0 32h16v16h-16zm-32-32h16v16h-16zm0 32h16v16h-16zm-32-32h16v16h-16zm0 32h16v16h-16zm-32-32h16v16h-16zm0 32h16v16h-16zm-32-32h16v16h-16zm0 32h16v16h-16zm-32-32h16v16h-16zm0 32h16v16h-16zm-32-32h16v16h-16zm0 32h16v16h-16zm-8 32h32v16h-32zm0 0" fill="#FFFFFF"/><path d="m368 368h8v16h-8zm0 0" fill="#FFFFFF"/><path d="m182.761719 43.199219c-2.511719 1.886719-5.894531 2.132812-8.648438.625-6.09375-3.332031-12.53125-5.980469-19.203125-7.902344-3.011718-.878906-5.230468-3.4375-5.679687-6.546875l-4.167969-29.375h-34.125l-4.183594 29.359375c-.449218 3.105469-2.667968 5.667969-5.683594 6.542969-6.667968 1.925781-13.109374 4.574218-19.199218 7.90625-2.746094 1.503906-6.121094 1.265625-8.632813-.609375l-23.6875-17.757813-24.125 24.109375 17.773438 23.6875c1.886719 2.511719 2.132812 5.894531.625 8.648438-3.332031 6.09375-5.980469 12.53125-7.902344 19.203125-.878906 3.011718-3.4375 5.230468-6.546875 5.679687l-29.375 4.167969v34.125l29.359375 4.183594c3.105469.449218 5.667969 2.667968 6.542969 5.683594 1.925781 6.667968 4.574218 13.105468 7.898437 19.199218 1.507813 2.746094 1.273438 6.121094-.601562 8.632813l-17.757813 23.6875 24.125 24.125 23.691406-17.757813c2.511719-1.886718 5.890626-2.125 8.644532-.617187 6.09375 3.324219 12.53125 5.972656 19.203125 7.898437 3.011719.875 5.234375 3.4375 5.679687 6.542969l4.152344 29.359375h34.125l4.183594-29.359375c.449218-3.105469 2.667968-5.667969 5.683594-6.542969 6.667968-1.925781 13.105468-4.574218 19.199218-7.898437 2.753906-1.507813 6.136719-1.269531 8.648438.617187l23.6875 17.757813 24.128906-24.125-17.792969-23.6875c-1.886719-2.511719-2.125-5.894531-.617187-8.648438 3.324218-6.09375 5.972656-12.53125 7.894531-19.203125.878906-3.011718 3.4375-5.230468 6.546875-5.679687l29.375-4.167969v-34.125l-29.359375-4.183594c-3.105469-.449218-5.667969-2.667968-6.542969-5.683594-1.925781-6.667968-4.574218-13.109374-7.90625-19.199218-1.507812-2.753906-1.261718-6.136719.625-8.648438l17.757813-23.6875-24.125-24.109375zm-150.761719 92.800781h-16v-16h16zm11.152344-81.535156 11.3125-11.3125 11.3125 11.3125-11.3125 11.3125zm11.3125 158.398437-11.3125-11.328125 11.3125-11.3125 11.3125 11.3125zm31.199218-66.503906-11.3125 11.3125-24-24c-3.121093-3.125-3.121093-8.1875 0-11.3125l24-24 11.3125 11.3125-18.351562 18.328125zm34.335938-130.359375h16v16h-16zm16 224h-16v-16h16zm-16.566406-69.03125-14.867188-5.9375 32-80 14.867188 5.9375zm104.566406-50.96875h16v16h-16zm-42.34375 37.65625-11.3125-11.3125 18.34375-18.34375-18.34375-18.34375 11.3125-11.3125 24 24c3.121094 3.125 3.121094 8.1875 0 11.3125zm31.199219 43.878906-11.3125 11.3125-11.3125-11.3125 11.3125-11.3125zm-11.3125-135.757812-11.3125-11.3125 11.3125-11.3125 11.3125 11.3125zm0 0" fill="#FFFFFF"/></svg>
