<?xml version="1.0"?>
<svg xmlns="http://www.w3.org/2000/svg" height="512px" viewBox="0 -8 464 464" width="512px"><path d="m144 328h-64c-4.417969 0-8-3.582031-8-8v-40h16v32h56zm0 0" fill="#FFFFFF"/><path d="m392 296h-56v-16h48v-32h16v40c0 4.417969-3.582031 8-8 8zm0 0" fill="#FFFFFF"/><path d="m40 96h16v-16h16v-16h-16v-16h-16v16h-16v16h16zm0 0" fill="#FFFFFF"/><path d="m424 48h16v-16h16v-16h-16v-16h-16v16h-16v16h16zm0 0" fill="#FFFFFF"/><path d="m408 400h-16v16h-16v16h16v16h16v-16h16v-16h-16zm0 0" fill="#FFFFFF"/><path d="m32 336h-16v16h-16v16h16v16h16v-16h16v-16h-16zm0 0" fill="#FFFFFF"/><path d="m336 376h-192v8c0 13.253906 10.746094 24 24 24h144c13.253906 0 24-10.746094 24-24zm-72 24h-48v-16h48zm0 0" fill="#FFFFFF"/><path d="m144 104h192v-8c0-13.253906-10.746094-24-24-24h-144c-13.253906 0-24 10.746094-24 24zm64-24h32v16h-32zm-32 0h16v16h-16zm0 0" fill="#FFFFFF"/><path d="m464 152h-144v80h144zm-128 16h32v16h-32zm96 48h-80v-16h80zm16-32h-64v-16h64zm0 0" fill="#FFFFFF"/><path d="m160 184h-144v80h144zm-128 16h16v16h-16zm80 48h-64v-16h64zm16-32h-64v-16h64zm0 0" fill="#FFFFFF"/><path d="m336 280v-32h-24c-4.417969 0-8-3.582031-8-8v-96c0-4.417969 3.582031-8 8-8h24v-16h-192v48h24c4.417969 0 8 3.582031 8 8v96c0 4.417969-3.582031 8-8 8h-24v32h96v16h-96v32h192v-64h-72v-16zm0 0" fill="#FFFFFF"/></svg>
