<?xml version="1.0"?>
<svg xmlns="http://www.w3.org/2000/svg" height="512px" viewBox="0 0 448 448" width="512px"><path d="m87.703125 176h16.296875c4.417969 0 8 3.582031 8 8h16c0-4.417969 3.582031-8 8-8h18.609375c-12.453125-5.324219-24.058594-12.441406-34.449219-21.128906-9.601562 8.757812-20.5625 15.894531-32.457031 21.128906zm0 0" fill="#FFFFFF"/><path d="m64 192h32v16h-32zm0 0" fill="#FFFFFF"/><path d="m64 248c0 13.253906 10.746094 24 24 24h64c13.253906 0 24-10.746094 24-24v-24h-40c-4.417969 0-8-3.582031-8-8v-16h-16v16c0 4.417969-3.582031 8-8 8h-40zm0 0" fill="#FFFFFF"/><path d="m240 448v-40c-.078125-47.113281-37.230469-85.816406-84.304688-87.816406l-29.449218 36.800781c-1.515625 1.898437-3.816406 3.003906-6.246094 3.003906s-4.730469-1.105469-6.246094-3.003906l-29.449218-36.800781c-47.074219 2-84.226563 40.703125-84.304688 87.816406v40h32v-40h16v40h144v-40h16v40zm0 0" fill="#FFFFFF"/><path d="m192 248c.003906 2.6875-.265625 5.367188-.800781 8h248.800781c4.417969 0 8-3.582031 8-8v-200h-288v50.824219c24.71875 14.269531 39.960938 40.632812 40 69.175781v8c0 4.417969-3.582031 8-8 8 13.253906 0 24 10.746094 24 24s-10.746094 24-24 24zm162.34375-122.34375 11.3125-11.3125 24 24c3.121094 3.125 3.121094 8.1875 0 11.3125l-24 24-11.3125-11.3125 18.34375-18.34375zm-33.777344-24.625 14.867188 5.9375-32 80-14.867188-5.9375zm-86.222656 37.3125 24-24 11.3125 11.3125-18.34375 18.34375 18.34375 18.34375-11.3125 11.3125-24-24c-3.121094-3.125-3.121094-8.1875 0-11.3125zm0 0" fill="#FFFFFF"/><path d="m192 200v16c4.417969 0 8-3.582031 8-8s-3.582031-8-8-8zm0 0" fill="#FFFFFF"/><path d="m144 192h32v16h-32zm0 0" fill="#FFFFFF"/><path d="m120 104c-35.328125.039062-63.960938 28.671875-64 64 22.363281-2.566406 43.066406-13.066406 58.34375-29.601562 3.125-3.117188 8.179688-3.117188 11.304688 0 16.179687 15.210937 36.46875 25.339843 58.351562 29.128906-.296875-35.144532-28.851562-63.488282-64-63.527344zm0 0" fill="#FFFFFF"/><path d="m160 32h288v-24c0-4.417969-3.582031-8-8-8h-272c-4.417969 0-8 3.582031-8 8zm80-24h16v16h-16zm-32 0h16v16h-16zm-32 0h16v16h-16zm0 0" fill="#FFFFFF"/><path d="m120 339.191406 24-30v-21.191406h-48v21.191406zm0 0" fill="#FFFFFF"/><path d="m48 200c-4.417969 0-8 3.582031-8 8s3.582031 8 8 8zm0 0" fill="#FFFFFF"/></svg>
