<?xml version="1.0"?>
<svg xmlns="http://www.w3.org/2000/svg" height="512px" viewBox="0 0 448 448" width="512px"><path d="m360 0h-192c-4.417969 0-8 3.582031-8 8v24h208v-24c0-4.417969-3.582031-8-8-8zm-168 24h-16v-16h16zm24 0h-16v-16h16zm24 0h-16v-16h16zm0 0" fill="#FFFFFF"/><path d="m360 192c4.417969 0 8-3.582031 8-8v-136h-208v72h120c13.253906 0 24 10.746094 24 24v48zm0 0" fill="#FFFFFF"/><path d="m8 392h272c4.417969 0 8-3.582031 8-8v-200h-288v200c0 4.417969 3.582031 8 8 8zm168-16h-32v-16h32zm-96-64v-16h48v16zm16 16v16h-32v-16zm16 0h32v16h-32zm32-16v-16h64v16zm48 16v16h-32v-16zm32 48h-32v-16h32zm-37.65625-154.34375 11.3125-11.3125 24 24c3.121094 3.125 3.121094 8.1875 0 11.3125l-24 24-11.3125-11.3125 18.34375-18.34375zm-33.777344-24.625 14.867188 5.9375-32 80-14.867188-5.9375zm-86.222656 37.3125 24-24 11.3125 11.3125-18.34375 18.34375 18.34375 18.34375-11.3125 11.3125-24-24c-3.121094-3.125-3.121094-8.1875 0-11.3125zm-18.34375 61.65625h16v16h-16zm-16 64h96v16h-96zm0 0" fill="#FFFFFF"/><path d="m448 288v-24c0-4.417969-3.582031-8-8-8h-136v32zm0 0" fill="#FFFFFF"/><path d="m248 448h192c4.417969 0 8-3.582031 8-8v-136h-144v80c0 13.253906-10.746094 24-24 24h-40v32c0 4.417969 3.582031 8 8 8zm0 0" fill="#FFFFFF"/><path d="m0 144v24h288v-24c0-4.417969-3.582031-8-8-8h-272c-4.417969 0-8 3.582031-8 8zm80 0h16v16h-16zm-32 0h16v16h-16zm-32 0h16v16h-16zm0 0" fill="#FFFFFF"/></svg>
