<?xml version="1.0"?>
<svg xmlns="http://www.w3.org/2000/svg" height="512px" viewBox="0 0 464 464" width="512px" class=""><g><path d="m464 232c0 128.128906-103.871094 232-232 232s-232-103.871094-232-232 103.871094-232 232-232 232 103.871094 232 232zm0 0" fill="#ee8700" data-original="#EE8700" class="" style="fill:#FFD600" data-old_color="#EE8700"/><path d="m408 232c0 97.203125-78.796875 176-176 176s-176-78.796875-176-176 78.796875-176 176-176 176 78.796875 176 176zm0 0" fill="#ffda44" data-original="#FFDA44" class="" style="fill:#F4F4F3" data-old_color="#F0EFEA"/><path d="m256 224h-16v-80h16c13.253906 0 24 10.746094 24 24h16c-.027344-22.082031-17.917969-39.972656-40-40h-16v-24h-16v24h-16c-22.082031.027344-39.972656 17.917969-40 40v32c.027344 22.082031 17.917969 39.972656 40 40h16v80h-16c-13.253906 0-24-10.746094-24-24h-16c.027344 22.082031 17.917969 39.972656 40 40h16v24h16v-24h16c22.082031-.027344 39.972656-17.917969 40-40v-32c-.027344-22.082031-17.917969-39.972656-40-40zm-48 0c-13.253906 0-24-10.746094-24-24v-32c0-13.253906 10.746094-24 24-24h16v80zm72 72c0 13.253906-10.746094 24-24 24h-16v-80h16c13.253906 0 24 10.746094 24 24zm0 0" fill="#ffa733" data-original="#FFA733" class="active-path" style="fill:#F7F6F5" data-old_color="#EEE6DA"/></g> </svg>
